# xmcd
#
# Track frame offsets: 
#        150
#        15397
#        27122
#        45142
#        62087
#        75862
#        94475
#        105350
#        116085
#        128682
#        141875
#        154935
#        173755
#        185602
#        198945
#        211100
#        224302
#        237312
#
# Disc length: 3349 seconds
#
# Revision: 1
# Processed by: cddbd v1.4PL0 Copyright (c) Steve Scherf et al.
# Submitted via: ExactAudioCopy v0.90b3
#
DISCID=e40d1312
DTITLE=Gene Watson - Eighteen Greatest Hits
DYEAR=1900
DGENRE=Country
TTITLE0=Love In The Hot Afternoon
TTITLE1=Should I Come Home (Or Should I Go Crazy) 
TTITLE2=Paper Rosie
TTITLE3=Nothing Sure Looked Good On You
TTITLE4=Where Love Begins
TTITLE5=Farewell Party
TTITLE6=Pick The Wildwood Flower
TTITLE7=Her Body Couldn't Keep You (Off My Mind)
TTITLE8=I Don't Need A Thing At All
TTITLE9=One Sided Conversations
TTITLE10=Because You Believed In Me
TTITLE11=The Old Man And His Horn
TTITLE12=Cowboys Don't Get Lucky All The Time (From The Convoy Soundtr
TTITLE12=ack)
TTITLE13=No One Will Ever Know
TTITLE14=Raisin' Cane In Texas 
TTITLE15=Bedroom Ballad
TTITLE16=You Could Know As Much About A Stanger
TTITLE17=Bad Water
EXTD=Gene Watson Eighteen Greatest Hits  
EXTT0=
EXTT1=
EXTT2=
EXTT3=
EXTT4=
EXTT5=
EXTT6=
EXTT7=
EXTT8=
EXTT9=
EXTT10=
EXTT11=
EXTT12=
EXTT13=
EXTT14=
EXTT15=
EXTT16=
EXTT17=
PLAYORDER=
